Patient4_TMGait_0pt4_02_left_12_EMG.mot
version=1
nRows=30
nColumns=33
inDegrees=no
endheader
time	1LAddLong	2LGlutMax	3LGlutMed	4LIliopsoas	5LSemiMemb	6LBicFemLong	7LRecFem	8LVastMed	9LVastLat	10LGasMed	11LTibAnt	12lTibPost	13LPeroneusLong	14LSol	15LExtDigLong	16LFlexDigLong	17RAddLong	18RGlutMax	19RGlutMed	20RIliopsoas	21RSemiMemb	22RBicFemLong	23RRecFem	24RVastMed	25RVastLat	26RGasMed	27RTibAnt	28RTibPost	29RPeroneusLong	30RSol	31RExtDigLong	32RFlexDigLong
17.403	0.010529	0.096283	-0.040283	0.015564	0.019989	-0.043335	-0.16174	0.000458	0.10757	-0.016479	0.048676	0.001984	-0.053101	-0.019226	0.26657	-0.016785	0.01297	-0.13763	0.1004	-0.037079	-0.22705	0.047455	0.14053	-0.012512	-0.018311	-0.014801	0.034943	-0.01297	-0.046692	-0.031433	-0.005341	-0.007019
17.404	0.008698	0.082397	-0.056763	0.004272	0.003204	-0.02243	-0.15243	-0.005646	0.11551	-0.032043	0.06546	0.007629	-0.080566	-0.005646	0.03067	-0.009613	0.029144	-0.13382	0.83374	-0.023041	-0.22034	0.045319	0.084534	-0.10544	-0.024872	0.004578	0.011597	-0.014343	0.41657	-0.014801	-0.00061	-0.010834
17.405	0.00885	0.09491	-0.001984	0.000763	-0.004425	-0.048523	-0.15121	-0.005646	0.11047	-0.02594	0.009155	0.010834	-0.040894	-0.024414	0.17395	-0.001221	0.003052	-0.052948	0.50842	0.060425	-0.19089	0.15503	0.10468	-0.048676	-0.019226	0.070801	0.017395	-0.011749	0.38711	-0.019684	-0.003052	-0.013275
17.406	0.006256	0.09552	0.027924	-0.002441	0.035553	-0.038757	-0.15045	-0.001068	0.10361	-0.057526	-0.23636	0.01236	0.006561	0.018005	0.18738	-0.003357	-0.049133	-0.10712	-0.019073	0.019684	0.11597	0.16098	0.17517	0.001526	0.00351	0.045929	0.010681	0.010071	0.26871	-0.000916	-0.002136	-0.012665
17.407	0.002289	0.072479	0.033569	0.003204	0.02533	-0.032043	-0.15976	0.002594	0.10284	-0.058899	-0.15121	0.004883	0.000153	-0.052795	-0.00473	-0.015564	-0.042419	-0.10056	-0.11459	-0.007935	0.39032	0.09201	0.15167	0.050201	0.062103	0.053558	0.015259	-0.000305	0.24124	0.029907	-0.00061	-0.01358
17.408	0.003357	0.068665	-0.015411	-0.00351	0.011597	-0.016174	-0.14389	0.003052	0.091858	-0.036316	-0.02533	-0.001984	-0.023193	-0.12131	-0.28534	-0.009766	-0.023193	-0.098267	-0.94559	0.031128	0.24353	-0.00824	0.081024	0.14358	0.12375	0.025177	0.033875	-0.009918	-0.15137	0.053253	0	-0.020905
17.409	0.000305	0.059967	-0.027466	0.010223	0.016785	-0.024261	-0.1326	0.000763	0.086212	-0.010986	-0.12329	0.012512	-0.04364	-0.11765	-0.25848	-0.009003	-0.024109	-0.05722	-1.6338	-0.011902	0.10712	-0.10925	-0.04837	0.091858	0.069122	0.018158	0.056458	-0.014648	-0.14755	0.16113	-0.000305	-0.019073
17.41	0.006866	0.077362	-0.003967	0.0177	-0.020905	-0.018616	-0.1474	0.003815	0.071564	-0.0177	-0.10788	0.007629	-0.037231	-0.078888	-0.16144	-0.009766	-0.00351	0.039673	-0.72342	-0.01709	0.077667	-0.09491	-0.18921	-0.016327	0.027771	0.028381	0.061188	-0.012665	0.42786	0.049744	-0.002441	-0.01297
17.411	0.010223	0.044403	0.000763	0.012817	-0.027618	-0.028992	-0.14358	0.002441	0.062714	-0.02655	0.11444	0.004883	-0.025635	-0.029907	0.066528	-0.002441	0.005188	0.010681	-0.14954	0.009766	0.071106	-0.012054	-0.24048	-0.074005	0.034485	0.038147	0.062561	-0.01358	0.84854	-0.015564	-0.001068	-0.016022
17.412	0.015106	0.024261	-0.062714	0.001373	0.007019	-0.047913	-0.13672	0.004272	0.054169	-0.03418	0.12146	0.003204	0.007324	-0.10346	0.066986	0.001678	0.002594	0.015564	1.1667	-0.015259	0.039368	0.006866	-0.19974	-0.058746	0.036316	-0.001373	0.1709	-0.018158	0.066833	-0.000458	0	-0.012512
17.413	0.012054	0.010071	-0.12589	0.014191	0.031128	-0.031586	-0.14191	0.003815	0.047607	-0.018463	0.10315	0.007019	-0.019226	-0.1207	0.05722	-0.00885	0.012207	0.024567	1.1864	0.036316	0.023346	0.00351	-0.087585	-0.045624	-0.017853	0.01297	0.15869	-0.014496	-0.61432	-0.069427	0	-0.00824
17.414	0.019073	0.010529	-0.14084	0.00946	0.020447	0.006104	-0.13412	-0.000763	0.041351	-0.009155	0.075836	0.002899	-0.079041	-0.076294	0.013885	-0.005035	0.006104	0.068207	0.032349	0.063019	0.015564	-0.025635	-0.00061	-0.06424	0.37598	0.035706	0.022736	-0.024567	-0.92209	-0.077972	-0.000916	-0.003815
17.415	0.017548	-0.010681	0.00885	-0.001831	0.024567	0.017242	-0.13001	0.002747	0.049133	-0.031586	0.028992	-0.000916	-0.076447	-0.044403	0.011292	-0.00412	0.009766	-0.050354	-0.06134	0.056458	0.019226	-0.016479	0.11948	-0.1474	0.36362	0.006866	-0.026245	-0.021057	-0.088043	-0.13794	0.001526	-0.011139
17.416	0.007629	-0.024414	0.13565	-0.005188	0.022583	0.028687	-0.12558	0.005035	0.057373	-0.016327	0.019836	0.010071	-0.056763	-0.036316	0.003967	-0.000153	0.01236	-0.14297	-0.64346	0.034637	0.023041	-0.061188	0.16663	-0.18005	0.19791	-0.016785	-0.048523	0.0737	-0.159	-0.1326	-0.007782	-0.003052
17.417	0.007172	-0.018158	0.16327	0.007324	-0.005188	0.02655	-0.13077	0.009155	0.059204	-0.025024	-0.02121	-0.009918	-0.045166	-0.039215	0.066223	-0.01236	0.011139	-0.11322	-0.41611	0.028229	0.029144	-0.027924	0.2182	-0.11276	0.078125	-0.017548	0.001221	0.016174	-0.89874	-0.084229	-0.00412	-0.007477
17.418	0.010529	0.006866	0.086823	0.014038	-0.042267	-0.010223	-0.13596	0.003357	0.077209	-0.036163	-0.06073	0.002136	-0.043945	-0.046997	0.25055	-0.014343	0.01358	-0.10056	-0.52536	0.035553	0.019073	-0.045013	0.005493	-0.028992	0.11429	0.026093	0.022278	-0.001526	0.030823	-0.067902	-0.002441	-0.000305
17.419	0.006409	-0.048676	0.021362	0.001373	-0.007782	-0.029755	-0.1149	0.003204	0.076141	-0.020599	-0.084839	0	-0.062408	-0.056305	0.23605	-0.011292	0.005188	-0.11246	-0.52872	0.034485	0.030518	-0.041962	-0.35538	-0.027618	0.054932	0.023193	0.011444	-0.002136	1.4687	-0.042877	-0.000153	-0.002136
17.42	0.005188	-0.046234	0.011902	0.010529	0.004272	0.006256	-0.10925	-0.000153	0.076294	-0.063782	0.082245	0.005341	-0.065155	-0.021973	0.074005	-0.016022	0.006714	-0.002136	-0.13947	0.048218	0.021362	-0.066528	-0.23483	0.13153	-0.14282	-0.012207	0.055389	0.002899	0.053864	0.007019	-0.003815	-0.013733
17.421	0.009155	-0.062561	0.016632	0.006104	-0.029907	0.027618	-0.10941	0.011444	0.053101	-0.01297	0.21729	-0.006561	-0.037994	0.046997	0.1474	-0.017548	0.001678	0.02182	0.52094	-0.037079	0.008087	-0.087433	-0.040741	0.18463	-0.36835	0.001526	-0.057831	-0.000458	0.035553	-0.058899	0.003204	-0.011292
17.422	-0.000458	-0.05722	0.000916	0.010529	-0.045776	0.039368	-0.11963	0.00061	0.055695	-0.014648	0.24445	-0.002136	-0.024414	0.060272	0.079651	0.006256	0.004272	0.02243	0.25055	-0.065155	-0.016785	-0.063629	0.073242	0.050507	-0.33524	0.024261	-0.10925	0.001984	0.71533	-0.21988	-0.001984	-0.00824
17.423	0.000305	-0.063629	-0.021973	-0.011749	-0.082397	0.014648	-0.098419	0.009155	0.039215	-0.027924	0.09491	-0.010986	-0.043335	0.095215	-0.014038	0.002594	0.023956	-0.020142	0.32227	-0.052338	-0.028229	-0.043182	0.071259	-0.020905	-0.14084	0.021515	-0.083618	-0.003357	0.75562	0.01297	0.002289	-0.01236
17.424	0.003967	-0.047302	-0.056152	0.019073	-0.098572	-0.006561	-0.11124	0.001221	0.041046	-0.050659	-0.062256	0.005646	-0.014038	0.06897	-0.24155	-0.003967	0.027771	-0.021667	-0.067749	0.023651	-0.06546	0.004425	0.066528	-0.018158	-0.092926	-0.041046	-0.033569	-0.003662	0.53375	0.045013	0.001526	-0.011902
17.425	0.010223	-0.05661	-0.10361	0.016632	-0.039215	-0.051575	-0.10803	0.004272	0.029602	-0.031891	-0.14008	-0.007172	-0.016174	0.075226	-0.061035	-0.005035	0.026398	0.055847	0.005798	0.020447	-0.16373	0.03891	0.076752	-0.049438	-0.035858	-0.03479	-0.15808	0.005951	-0.56397	0.000458	0.00061	-0.010681
17.426	0.017242	-0.030365	-0.1178	0.019226	0.10208	-0.04303	-0.099335	0.002899	0.035553	-0.006866	-0.21011	-0.011597	-0.038147	0.019836	-0.23285	-0.020447	0.033112	0.10941	0.018463	0.011292	-0.068665	0.029602	0.069885	-0.036163	-0.018005	0.006104	-0.18356	0.000305	-0.55084	-0.096283	0.002594	-0.018005
17.427	0.024872	-0.056305	-0.1297	0.014191	0.11078	0.014038	-0.1152	-0.001221	0.030823	-0.014496	-0.12131	-0.002136	-0.033264	-0.16205	0.051117	-0.023193	0.025635	0.066528	-0.34973	0.052185	0.12314	0.024719	0.06424	-0.057678	-0.015106	0.012054	-0.041962	0.000763	-0.10666	-0.20218	-0.001984	-0.014954
17.428	0.018005	-0.061646	0.047607	-0.010681	0.047913	0.06424	-0.09491	0.003967	0.036621	-0.029297	-0.042877	-0.004272	0.010223	-0.21408	0.466	-0.016174	-0.004272	0.076447	-0.11719	0.043182	0.016022	0.10407	0.07782	0.000305	0.017395	0.006409	0.043945	-0.00061	0.24063	-0.06958	0.002747	-0.00412
17.429	0.013885	-0.093689	0.064545	0.018158	0.022278	0.070496	-0.076141	-0.000305	0.043488	-0.050964	0.02121	-0.005951	0.014191	-0.19272	-0.23468	-0.017395	-0.00061	0.01297	0.15671	0.00351	-0.095825	0.086365	0.028534	-0.080719	0.013275	0.009155	0.14374	-0.000458	-0.004425	0.021973	-0.003052	-0.002289
17.43	0.008087	-0.10086	0.059509	0.019531	0.014038	0.058899	-0.094452	0.010071	0.046082	-0.034332	0.096741	0.00061	-0.037384	-0.13916	-0.36896	-0.022278	-0.006714	0.029755	-0.29617	-0.013275	-0.085144	-0.028381	-0.041046	-0.022583	0.059814	-0.00473	0.14877	-0.002136	-0.63904	0.023346	-0.000458	-0.002747
17.431	0.004272	-0.11704	0.040131	0.007629	0.030212	0.084229	-0.087891	0.007935	0.03952	-0.004425	0.048981	-0.00351	-0.082092	-0.13306	-0.23346	-0.019989	0.012665	-0.027008	-0.43137	-0.012512	0.000916	-0.16678	-0.006866	0.053406	0.071106	-0.004883	0.1265	-0.002136	-0.86502	0.050201	0	0.000153
17.432	0.005951	-0.11597	0.057678	-0.003052	0.029144	0.05661	-0.076752	0.009766	0.038147	-0.021057	0.044556	-0.00351	-0.073547	-0.1091	-0.21652	-0.013733	0.034637	-0.03006	-0.30106	-0.051117	0.028687	-0.19745	0.005493	0.04715	0.009613	0	0.061493	0.001984	-0.36407	-0.010223	0.010223	0.000916
